<?xml version="1.0" standalone="no"?>
<!DOCTYPE svg PUBLIC "-//W3C//DTD SVG 20010904//EN"
 "http://www.w3.org/TR/2001/REC-SVG-20010904/DTD/svg10.dtd">
<svg version="1.0" xmlns="http://www.w3.org/2000/svg"
 width="700.0pt" height="700.0pt" viewBox="0 0 800.0 800.0"
 preserveAspectRatio="xMidYMid meet">
<metadata>
</metadata>
<g transform="translate(0.000000,800.000000) scale(0.100000,-0.100000)"
fill="#fff" stroke="none">
<path d="M0 4000 l0 -4000 4000 0 4000 0 0 4000 0 4000 -4000 0 -4000 0 0
-4000z m3515 590 l490 -490 490 490 490 490 142 0 143 0 0 -924 0 -923 -195
-192 -195 -191 -195 0 c-107 0 -195 4 -195 8 0 4 23 30 50 57 l50 49 0 376 0
375 -288 -288 c-158 -158 -292 -287 -297 -287 -5 0 -139 129 -297 287 l-288
288 0 -380 0 -381 45 -44 c25 -24 45 -48 45 -52 0 -4 -89 -8 -197 -8 l-198 0
-187 187 -188 188 0 927 0 928 142 0 143 0 490 -490z"/>
<path d="M3020 4015 l0 -661 55 -54 55 -54 0 432 0 432 148 0 147 0 290 -290
290 -290 290 290 290 290 148 0 147 0 0 -427 0 -427 50 49 50 49 0 661 0 660
-490 -490 -490 -490 -490 490 -490 490 0 -660z"/>
</g>
</svg>
